<svg xmlns="http://www.w3.org/2000/svg" width="1024" height="1024" viewBox="0 0 1024 1024">
  <rect width="1024" height="1024" rx="224" fill="#fa4f0b"/>
  <g transform="translate(512,512) scale(1.1)" fill="white">
    <!-- Laptop base -->
    <rect x="-220" y="20" width="440" height="24" rx="12" fill="white" opacity="0.9"/>
    <!-- Laptop screen -->
    <rect x="-180" y="-200" width="360" height="230" rx="18" fill="white" opacity="0.15" stroke="white" stroke-width="8"/>
    <!-- Flame icon centered on screen -->
    <path d="M0-150 C30-110 80-60 80-10 C80 50 45 90 0 90 C-45 90-80 50-80-10 C-80-60-30-110 0-150Z" fill="white" opacity="0.95"/>
    <path d="M0-80 C-20-50-45-15-45 20 C-45 50-25 70 0 70 C25 70 45 50 45 20 C45-15 20-50 0-80Z" fill="#fa4f0b"/>
  </g>
</svg>
